<?xml version="1.0" encoding="UTF-8"?>
<svg id="Layer_1" data-name="Layer 1" xmlns="http://www.w3.org/2000/svg" viewBox="0 0 617.69 216.8">
  <defs>
    <style>
      .cls-1 {
        fill: #aadcde;
      }

      .cls-2 {
        fill: #f2cdab;
      }

      .cls-3 {
        fill: #1e98b5;
      }

      .cls-4 {
        letter-spacing: -.11em;
      }

      .cls-4, .cls-5, .cls-6 {
        font-family: Interstate-Black, Interstate;
        font-size: 60px;
        font-weight: 800;
      }

      .cls-7 {
        fill: #16b9b9;
      }

      .cls-8 {
        letter-spacing: -.11em;
      }

      .cls-8, .cls-9 {
        font-family: Interstate-Light, Interstate;
        font-size: 61px;
        font-weight: 300;
      }

      .cls-10 {
        fill: none;
        stroke: #231f20;
        stroke-miterlimit: 10;
        stroke-width: 4px;
      }

      .cls-5 {
        letter-spacing: -.1em;
      }

      .cls-6 {
        letter-spacing: -.17em;
      }

      .cls-9 {
        letter-spacing: -.1em;
      }

      .cls-11 {
        fill: #f47f20;
      }

      .cls-12 {
        fill: #231f20;
      }
    </style>
  </defs>
  <circle class="cls-7" cx="169.67" cy="64.21" r="20.51"/>
  <circle class="cls-7" cx="475.53" cy="64.07" r="20.51"/>
  <polygon class="cls-3" points="403.19 106.7 342.95 106.7 342.95 22.35 373.52 2.35 403.19 22.35 403.19 106.7"/>
  <path class="cls-11" d="m150.29,212.79s7.6-2.71,7.6-8.94-14.42-19.27-14.42-24.99-.77-55.71-.77-55.71h46.35v54.48s-13.65,20.27-13.87,25.67,6.91,12.22,6.91,12.22h-32.5l.71-2.73Z"/>
  <path class="cls-2" d="m534.27,174.06v-33.3s3.44-10.9,14.99-10.9,14.47,10.35,14.47,10.35v33.85h-29.46Z"/>
  <path class="cls-2" d="m25.65,214.64v-83.04s1.36-23.53,29.7-23.53,28.56,26.5,28.56,26.5v80.07H25.65Z"/>
  <path class="cls-2" d="m475.99,214.64v-83.04s1.36-23.53,29.7-23.53,28.56,26.5,28.56,26.5v80.07h-58.26Z"/>
  <path class="cls-2" d="m535.04,214.64v-36.04s1.36-23.53,29.7-23.53,28.56,26.5,28.56,26.5v33.07h-58.26Z"/>
  <rect class="cls-3" x="189.09" y="55.81" width="67.41" height="50.43"/>
  <polygon class="cls-1" points="140.47 214.21 84.76 214.21 84.76 162.82 111.52 146.82 140.47 162.82 140.47 214.21"/>
  <polygon class="cls-1" points="372.91 107.08 317.2 107.08 317.2 55.69 343.95 39.69 372.91 55.69 372.91 107.08"/>
  <rect class="cls-3" x="389" y="38.83" width="67.41" height="67.41"/>
  <rect class="cls-3" x="246.67" y="38.83" width="67.41" height="67.41"/>
  <text class="cls-12" transform="translate(217.54 181.74)"><tspan class="cls-4" x="0" y="0">R</tspan><tspan class="cls-6" x="36.06" y="0">W</tspan><tspan class="cls-5" x="81.54" y="0">A</tspan><tspan class="cls-9" x="121.26" y="0">La</tspan><tspan class="cls-8" x="177.01" y="0">b</tspan><tspan class="cls-9" x="204.52" y="0">s</tspan></text>
  <rect class="cls-10" x="189.41" y="107.9" width="286.27" height="106.86"/>
  <g>
    <polyline class="cls-10" points="402.21 39.6 402.21 20.2 373.37 2.35 344.31 20.42 344.31 39.6"/>
    <line class="cls-10" x1="385.26" y1="20.38" x2="385.26" y2="30.51"/>
    <line class="cls-10" x1="374.01" y1="20.38" x2="374.01" y2="30.51"/>
    <line class="cls-10" x1="361.92" y1="20.38" x2="361.92" y2="30.51"/>
  </g>
  <g>
    <path class="cls-10" d="m534.33,214.76v-79.72s.97-27.14-28.84-27.14-29.06,27.48-29.06,27.48v79.38"/>
    <line class="cls-10" x1="517.38" y1="137" x2="517.38" y2="152.41"/>
    <line class="cls-10" x1="506.12" y1="137" x2="506.12" y2="152.41"/>
    <line class="cls-10" x1="494.04" y1="137" x2="494.04" y2="152.41"/>
    <line class="cls-10" x1="517.38" y1="166.33" x2="517.38" y2="181.74"/>
    <line class="cls-10" x1="506.12" y1="166.33" x2="506.12" y2="181.74"/>
    <line class="cls-10" x1="494.04" y1="166.33" x2="494.04" y2="181.74"/>
  </g>
  <g>
    <path class="cls-10" d="m83.56,214.76v-79.72s.97-27.14-28.84-27.14-29.06,27.48-29.06,27.48v79.38"/>
    <line class="cls-10" x1="66.6" y1="137" x2="66.6" y2="152.41"/>
    <line class="cls-10" x1="55.35" y1="137" x2="55.35" y2="152.41"/>
    <line class="cls-10" x1="43.26" y1="137" x2="43.26" y2="152.41"/>
    <line class="cls-10" x1="43.26" y1="166.33" x2="43.26" y2="181.74"/>
  </g>
  <g>
    <path class="cls-10" d="m592.68,214.76v-32.72s.97-27.14-28.84-27.14-29.06,27.48-29.06,27.48v32.38"/>
    <line class="cls-10" x1="575.72" y1="182" x2="575.72" y2="197.41"/>
  </g>
  <g>
    <polyline class="cls-10" points="373.26 106.25 373.26 53.85 344.42 38 315.35 54.07 315.35 106.25"/>
    <line class="cls-10" x1="356.31" y1="64.03" x2="356.31" y2="74.16"/>
    <line class="cls-10" x1="345.05" y1="64.03" x2="345.05" y2="74.16"/>
    <line class="cls-10" x1="332.97" y1="64.03" x2="332.97" y2="74.16"/>
  </g>
  <g>
    <polyline class="cls-10" points="141.47 214.76 141.47 162.36 112.63 146.51 83.56 162.58 83.56 214.76"/>
    <line class="cls-10" x1="124.52" y1="172.54" x2="124.52" y2="182.67"/>
    <line class="cls-10" x1="113.26" y1="172.54" x2="113.26" y2="182.67"/>
    <line class="cls-10" x1="101.18" y1="172.54" x2="101.18" y2="182.67"/>
  </g>
  <polyline class="cls-10" points="457.7 108.52 457.7 38.82 389 38.82 389 108.68"/>
  <line class="cls-10" x1="447.79" y1="66.85" x2="447.79" y2="76.97"/>
  <line class="cls-10" x1="435.46" y1="66.85" x2="435.46" y2="76.97"/>
  <line class="cls-10" x1="422.69" y1="66.85" x2="422.69" y2="76.97"/>
  <line class="cls-10" x1="447.13" y1="47.91" x2="447.13" y2="58.04"/>
  <line class="cls-10" x1="435.24" y1="47.91" x2="435.24" y2="58.04"/>
  <polyline class="cls-10" points="315.35 107.9 315.35 38.04 246.65 38.04 246.65 54.73 189.41 54.73 189.41 107.9 54.12 107.9"/>
  <line class="cls-10" x1="201.3" y1="64.06" x2="201.3" y2="74.19"/>
  <line class="cls-10" x1="213.63" y1="64.06" x2="213.63" y2="74.19"/>
  <line class="cls-10" x1="226.4" y1="64.06" x2="226.4" y2="74.19"/>
  <line class="cls-10" x1="257.22" y1="46.51" x2="257.22" y2="56.64"/>
  <line class="cls-10" x1="269.11" y1="46.51" x2="269.11" y2="56.64"/>
  <path class="cls-10" d="m141.8,107.9v54.79c0,29.26,15.91,29.07,15.91,40.93s-15.91,11.14-15.91,11.14h47.61s-14.64,1.28-14.64-11.14,14.64-12.23,14.64-40.93"/>
  <line class="cls-10" x1="141.8" y1="122.71" x2="189.41" y2="122.71"/>
  <line class="cls-10" x1="141.8" y1="214.76" y2="214.76"/>
  <line class="cls-10" x1="617.69" y1="214.76" x2="475.89" y2="214.76"/>
  <path class="cls-10" d="m534.33,144.71s.64-15.14,15.14-15.14,14.7,14.7,14.7,14.7v10.64"/>
  <line class="cls-10" x1="549.25" y1="137" x2="549.25" y2="152.41"/>
  <path d="m491.76,61.36c-2.03-1.9-4.4-3.23-6.74-4.12,1.76-.2,3.68-.19,5.6.25,1.68.38,3.35,1.1,4.92,2.28-.43-2-1.16-3.89-2.13-5.63-1.85-.65-3.76-.96-5.63-1.01-3.71-.12-7.29.74-10.1,1.87v-2.25h-4v2c-2.88-1.07-6.46-1.82-10.13-1.59-1.93.12-3.88.52-5.77,1.28-.98,1.83-1.68,3.82-2.07,5.93,1.55-1.35,3.24-2.19,4.94-2.68,1.98-.57,3.97-.65,5.82-.49-2.39.89-4.8,2.24-6.87,4.17-.14.87-.24,1.75-.24,2.66,0,1.22.15,2.4.4,3.55,2.11-3.79,5.61-5.76,8.6-6.78-1.93,2.94-3.6,7.58-4.04,14.92-.07,1.24-.12,5.25-.12,5.46,2.06,1.31,3.36,1.82,4.02,2.06,0-.65,0-4.34,0-4.72.19-11.54,3.28-16.03,5.46-17.75v48.15h4v-48.22c2.09,1.67,5.12,6.12,5.44,17.82.02.69.03,4.42.03,4.59.9-.34,2.37-1.03,4-2.16,0-.16-.06-3.69-.16-5.21-.49-7.31-2.05-11.96-3.88-14.92,2.96,1.03,6.4,2.99,8.48,6.73.95,1.71,1.61,3.8,1.82,6.33,1.18-2.11,1.98-4.46,2.34-6.96-1.01-2.25-2.4-4.09-4-5.58Z"/>
  <path d="m185.76,61.36c-2.03-1.9-4.4-3.23-6.74-4.12,1.76-.2,3.68-.19,5.6.25,1.68.38,3.35,1.1,4.92,2.28-.43-2-1.16-3.89-2.13-5.63-1.85-.65-3.76-.96-5.63-1.01-3.71-.12-7.29.74-10.1,1.87v-2.25h-4v2c-2.88-1.07-6.46-1.82-10.13-1.59-1.93.12-3.88.52-5.77,1.28-.98,1.83-1.68,3.82-2.07,5.93,1.55-1.35,3.24-2.19,4.94-2.68,1.98-.57,3.97-.65,5.82-.49-2.38.89-4.79,2.24-6.86,4.16,0,0,0,0,0,0,0,0,0,0,0,0,0,0,0,0-.01,0,0,0,0,0,0,0-1.59,1.49-2.98,3.32-3.99,5.56.36,2.49,1.16,4.84,2.34,6.96.21-2.53.87-4.62,1.82-6.33,0,0,0,0,0,0,2.11-3.78,5.6-5.74,8.58-6.76-1.93,2.94-3.6,7.58-4.04,14.92-.07,1.24-.12,5.25-.12,5.46,2.06,1.31,3.36,1.82,4.02,2.06,0-.65,0-4.34,0-4.72.19-11.54,3.28-16.03,5.46-17.75v48.15h4v-48.22c2.09,1.67,5.12,6.12,5.44,17.82.02.69.03,4.42.03,4.59.9-.34,2.37-1.03,4-2.16,0-.16-.06-3.69-.16-5.21-.49-7.31-2.05-11.96-3.88-14.92,2.96,1.03,6.4,2.99,8.48,6.73.95,1.71,1.61,3.8,1.82,6.33,1.18-2.11,1.98-4.46,2.34-6.96-1.01-2.25-2.4-4.09-4-5.58Z"/>
  <circle class="cls-7" cx="128.51" cy="64.07" r="20.51"/>
  <path d="m144.74,61.36c-2.03-1.9-4.4-3.23-6.74-4.12,1.76-.2,3.68-.19,5.6.25,1.68.38,3.35,1.1,4.92,2.28-.43-2-1.16-3.89-2.13-5.63-1.85-.65-3.76-.96-5.63-1.01-3.71-.12-7.29.74-10.1,1.87v-2.25h-4v2c-2.88-1.07-6.46-1.82-10.13-1.59-1.93.12-3.88.52-5.77,1.28-.98,1.83-1.68,3.82-2.07,5.93,1.55-1.35,3.24-2.19,4.94-2.68,1.98-.57,3.97-.65,5.82-.49-2.38.89-4.79,2.24-6.86,4.16,0,0,0,0,0,0,0,0,0,0,0,0,0,0,0,0-.01,0,0,0,0,0,0,0-1.59,1.49-2.98,3.32-3.99,5.56.36,2.49,1.16,4.84,2.34,6.96.21-2.53.87-4.62,1.82-6.33,0,0,0,0,0,0,2.11-3.78,5.6-5.74,8.58-6.76-1.93,2.94-3.6,7.58-4.04,14.92-.07,1.24-.12,5.25-.12,5.46,2.06,1.31,3.36,1.82,4.02,2.06,0-.65,0-4.34,0-4.72.19-11.54,3.28-16.03,5.46-17.75v48.15h4v-48.22c2.09,1.67,5.12,6.12,5.44,17.82.02.69.03,4.42.03,4.59.9-.34,2.37-1.03,4-2.16,0-.16-.06-3.69-.16-5.21-.49-7.31-2.05-11.96-3.88-14.92,2.96,1.03,6.4,2.99,8.48,6.73.95,1.71,1.61,3.8,1.82,6.33,1.18-2.11,1.98-4.46,2.34-6.96-1.01-2.25-2.4-4.09-4-5.58Z"/>
</svg>